<svg xmlns="http://www.w3.org/2000/svg" width="1080" height="530" viewBox="0 0 1080 530"><rect width="100%" height="100%" fill="white"/><text x="540.0" y="30" font-family="Segoe UI,Arial,sans-serif" font-size="20" fill="#222" text-anchor="middle" font-weight="bold">Decision-only ITR by fixed EEG evidence duration</text><text x="285.0" y="60" font-family="Segoe UI,Arial,sans-serif" font-size="16" fill="#222" text-anchor="middle" font-weight="bold">B2 formal heldout</text><line x1="75" y1="416.0" x2="495" y2="416.0" stroke="#e5e7eb"/><text x="65" y="420.0" font-family="Segoe UI,Arial,sans-serif" font-size="11" fill="#666" text-anchor="end" font-weight="normal">0</text><line x1="75" y1="348.0" x2="495" y2="348.0" stroke="#e5e7eb"/><text x="65" y="352.0" font-family="Segoe UI,Arial,sans-serif" font-size="11" fill="#666" text-anchor="end" font-weight="normal">14</text><line x1="75" y1="280.0" x2="495" y2="280.0" stroke="#e5e7eb"/><text x="65" y="284.0" font-family="Segoe UI,Arial,sans-serif" font-size="11" fill="#666" text-anchor="end" font-weight="normal">28</text><line x1="75" y1="212.0" x2="495" y2="212.0" stroke="#e5e7eb"/><text x="65" y="216.0" font-family="Segoe UI,Arial,sans-serif" font-size="11" fill="#666" text-anchor="end" font-weight="normal">42</text><line x1="75" y1="144.0" x2="495" y2="144.0" stroke="#e5e7eb"/><text x="65" y="148.0" font-family="Segoe UI,Arial,sans-serif" font-size="11" fill="#666" text-anchor="end" font-weight="normal">56</text><line x1="75" y1="76.0" x2="495" y2="76.0" stroke="#e5e7eb"/><text x="65" y="80.0" font-family="Segoe UI,Arial,sans-serif" font-size="11" fill="#666" text-anchor="end" font-weight="normal">70</text><line x1="75" y1="76" x2="75" y2="416" stroke="#555"/><line x1="75" y1="416" x2="495" y2="416" stroke="#555"/><polyline fill="none" stroke="#1464f4" stroke-width="2.6" points="75.0,188.6 127.5,203.7 180.0,99.7 232.5,118.3 285.0,91.6 337.5,163.0 390.0,110.3 442.5,157.3 495.0,191.8"/><circle cx="75.0" cy="188.6" r="3.7" fill="#1464f4"/><circle cx="127.5" cy="203.7" r="3.7" fill="#1464f4"/><circle cx="180.0" cy="99.7" r="3.7" fill="#1464f4"/><circle cx="232.5" cy="118.3" r="3.7" fill="#1464f4"/><circle cx="285.0" cy="91.6" r="3.7" fill="#1464f4"/><circle cx="337.5" cy="163.0" r="3.7" fill="#1464f4"/><circle cx="390.0" cy="110.3" r="3.7" fill="#1464f4"/><circle cx="442.5" cy="157.3" r="3.7" fill="#1464f4"/><circle cx="495.0" cy="191.8" r="3.7" fill="#1464f4"/><polyline fill="none" stroke="#e07b18" stroke-width="2.6" points="75.0,415.8 127.5,413.4 180.0,408.6 232.5,409.0 285.0,409.4 337.5,414.0 390.0,414.2 442.5,414.5 495.0,415.9"/><circle cx="75.0" cy="415.8" r="3.7" fill="#e07b18"/><circle cx="127.5" cy="413.4" r="3.7" fill="#e07b18"/><circle cx="180.0" cy="408.6" r="3.7" fill="#e07b18"/><circle cx="232.5" cy="409.0" r="3.7" fill="#e07b18"/><circle cx="285.0" cy="409.4" r="3.7" fill="#e07b18"/><circle cx="337.5" cy="414.0" r="3.7" fill="#e07b18"/><circle cx="390.0" cy="414.2" r="3.7" fill="#e07b18"/><circle cx="442.5" cy="414.5" r="3.7" fill="#e07b18"/><circle cx="495.0" cy="415.9" r="3.7" fill="#e07b18"/><polyline fill="none" stroke="#23965b" stroke-width="2.6" points="75.0,104.0 127.5,78.6 180.0,277.2 232.5,228.7 285.0,207.9 337.5,305.0 390.0,271.3 442.5,293.5 495.0,270.4"/><circle cx="75.0" cy="104.0" r="3.7" fill="#23965b"/><circle cx="127.5" cy="78.6" r="3.7" fill="#23965b"/><circle cx="180.0" cy="277.2" r="3.7" fill="#23965b"/><circle cx="232.5" cy="228.7" r="3.7" fill="#23965b"/><circle cx="285.0" cy="207.9" r="3.7" fill="#23965b"/><circle cx="337.5" cy="305.0" r="3.7" fill="#23965b"/><circle cx="390.0" cy="271.3" r="3.7" fill="#23965b"/><circle cx="442.5" cy="293.5" r="3.7" fill="#23965b"/><circle cx="495.0" cy="270.4" r="3.7" fill="#23965b"/><text x="75.0" y="439" font-family="Segoe UI,Arial,sans-serif" font-size="10" fill="#666" text-anchor="middle" font-weight="normal">0.2</text><text x="127.5" y="439" font-family="Segoe UI,Arial,sans-serif" font-size="10" fill="#666" text-anchor="middle" font-weight="normal">0.25</text><text x="180.0" y="439" font-family="Segoe UI,Arial,sans-serif" font-size="10" fill="#666" text-anchor="middle" font-weight="normal">0.3</text><text x="232.5" y="439" font-family="Segoe UI,Arial,sans-serif" font-size="10" fill="#666" text-anchor="middle" font-weight="normal">0.35</text><text x="285.0" y="439" font-family="Segoe UI,Arial,sans-serif" font-size="10" fill="#666" text-anchor="middle" font-weight="normal">0.4</text><text x="337.5" y="439" font-family="Segoe UI,Arial,sans-serif" font-size="10" fill="#666" text-anchor="middle" font-weight="normal">0.5</text><text x="390.0" y="439" font-family="Segoe UI,Arial,sans-serif" font-size="10" fill="#666" text-anchor="middle" font-weight="normal">0.6</text><text x="442.5" y="439" font-family="Segoe UI,Arial,sans-serif" font-size="10" fill="#666" text-anchor="middle" font-weight="normal">0.8</text><text x="495.0" y="439" font-family="Segoe UI,Arial,sans-serif" font-size="10" fill="#666" text-anchor="middle" font-weight="normal">1</text><text x="285.0" y="463" font-family="Segoe UI,Arial,sans-serif" font-size="12" fill="#555" text-anchor="middle" font-weight="normal">EEG evidence duration (s)</text><text x="795.0" y="60" font-family="Segoe UI,Arial,sans-serif" font-size="16" fill="#222" text-anchor="middle" font-weight="bold">S7 stress heldout</text><line x1="585" y1="416.0" x2="1005" y2="416.0" stroke="#e5e7eb"/><text x="575" y="420.0" font-family="Segoe UI,Arial,sans-serif" font-size="11" fill="#666" text-anchor="end" font-weight="normal">0</text><line x1="585" y1="348.0" x2="1005" y2="348.0" stroke="#e5e7eb"/><text x="575" y="352.0" font-family="Segoe UI,Arial,sans-serif" font-size="11" fill="#666" text-anchor="end" font-weight="normal">14</text><line x1="585" y1="280.0" x2="1005" y2="280.0" stroke="#e5e7eb"/><text x="575" y="284.0" font-family="Segoe UI,Arial,sans-serif" font-size="11" fill="#666" text-anchor="end" font-weight="normal">28</text><line x1="585" y1="212.0" x2="1005" y2="212.0" stroke="#e5e7eb"/><text x="575" y="216.0" font-family="Segoe UI,Arial,sans-serif" font-size="11" fill="#666" text-anchor="end" font-weight="normal">42</text><line x1="585" y1="144.0" x2="1005" y2="144.0" stroke="#e5e7eb"/><text x="575" y="148.0" font-family="Segoe UI,Arial,sans-serif" font-size="11" fill="#666" text-anchor="end" font-weight="normal">56</text><line x1="585" y1="76.0" x2="1005" y2="76.0" stroke="#e5e7eb"/><text x="575" y="80.0" font-family="Segoe UI,Arial,sans-serif" font-size="11" fill="#666" text-anchor="end" font-weight="normal">70</text><line x1="585" y1="76" x2="585" y2="416" stroke="#555"/><line x1="585" y1="416" x2="1005" y2="416" stroke="#555"/><polyline fill="none" stroke="#1464f4" stroke-width="2.6" points="585.0,365.4 637.5,332.8 690.0,294.6 742.5,188.7 795.0,87.0 847.5,119.9 900.0,212.5 952.5,154.8 1005.0,189.7"/><circle cx="585.0" cy="365.4" r="3.7" fill="#1464f4"/><circle cx="637.5" cy="332.8" r="3.7" fill="#1464f4"/><circle cx="690.0" cy="294.6" r="3.7" fill="#1464f4"/><circle cx="742.5" cy="188.7" r="3.7" fill="#1464f4"/><circle cx="795.0" cy="87.0" r="3.7" fill="#1464f4"/><circle cx="847.5" cy="119.9" r="3.7" fill="#1464f4"/><circle cx="900.0" cy="212.5" r="3.7" fill="#1464f4"/><circle cx="952.5" cy="154.8" r="3.7" fill="#1464f4"/><circle cx="1005.0" cy="189.7" r="3.7" fill="#1464f4"/><polyline fill="none" stroke="#e07b18" stroke-width="2.6" points="585.0,416.0 637.5,383.0 690.0,338.0 742.5,397.2 795.0,308.1 847.5,318.9 900.0,359.3 952.5,379.1 1005.0,392.4"/><circle cx="585.0" cy="416.0" r="3.7" fill="#e07b18"/><circle cx="637.5" cy="383.0" r="3.7" fill="#e07b18"/><circle cx="690.0" cy="338.0" r="3.7" fill="#e07b18"/><circle cx="742.5" cy="397.2" r="3.7" fill="#e07b18"/><circle cx="795.0" cy="308.1" r="3.7" fill="#e07b18"/><circle cx="847.5" cy="318.9" r="3.7" fill="#e07b18"/><circle cx="900.0" cy="359.3" r="3.7" fill="#e07b18"/><circle cx="952.5" cy="379.1" r="3.7" fill="#e07b18"/><circle cx="1005.0" cy="392.4" r="3.7" fill="#e07b18"/><polyline fill="none" stroke="#23965b" stroke-width="2.6" points="585.0,303.5 637.5,311.0 690.0,338.0 742.5,342.6 795.0,308.1 847.5,380.6 900.0,344.4 952.5,403.7 1005.0,392.4"/><circle cx="585.0" cy="303.5" r="3.7" fill="#23965b"/><circle cx="637.5" cy="311.0" r="3.7" fill="#23965b"/><circle cx="690.0" cy="338.0" r="3.7" fill="#23965b"/><circle cx="742.5" cy="342.6" r="3.7" fill="#23965b"/><circle cx="795.0" cy="308.1" r="3.7" fill="#23965b"/><circle cx="847.5" cy="380.6" r="3.7" fill="#23965b"/><circle cx="900.0" cy="344.4" r="3.7" fill="#23965b"/><circle cx="952.5" cy="403.7" r="3.7" fill="#23965b"/><circle cx="1005.0" cy="392.4" r="3.7" fill="#23965b"/><text x="585.0" y="439" font-family="Segoe UI,Arial,sans-serif" font-size="10" fill="#666" text-anchor="middle" font-weight="normal">0.2</text><text x="637.5" y="439" font-family="Segoe UI,Arial,sans-serif" font-size="10" fill="#666" text-anchor="middle" font-weight="normal">0.25</text><text x="690.0" y="439" font-family="Segoe UI,Arial,sans-serif" font-size="10" fill="#666" text-anchor="middle" font-weight="normal">0.3</text><text x="742.5" y="439" font-family="Segoe UI,Arial,sans-serif" font-size="10" fill="#666" text-anchor="middle" font-weight="normal">0.35</text><text x="795.0" y="439" font-family="Segoe UI,Arial,sans-serif" font-size="10" fill="#666" text-anchor="middle" font-weight="normal">0.4</text><text x="847.5" y="439" font-family="Segoe UI,Arial,sans-serif" font-size="10" fill="#666" text-anchor="middle" font-weight="normal">0.5</text><text x="900.0" y="439" font-family="Segoe UI,Arial,sans-serif" font-size="10" fill="#666" text-anchor="middle" font-weight="normal">0.6</text><text x="952.5" y="439" font-family="Segoe UI,Arial,sans-serif" font-size="10" fill="#666" text-anchor="middle" font-weight="normal">0.8</text><text x="1005.0" y="439" font-family="Segoe UI,Arial,sans-serif" font-size="10" fill="#666" text-anchor="middle" font-weight="normal">1</text><text x="795.0" y="463" font-family="Segoe UI,Arial,sans-serif" font-size="12" fill="#555" text-anchor="middle" font-weight="normal">EEG evidence duration (s)</text><line x1="410" y1="485" x2="435" y2="485" stroke="#1464f4" stroke-width="3"/><text x="442" y="490" font-family="Segoe UI,Arial,sans-serif" font-size="12" fill="#444" text-anchor="start" font-weight="normal">FBCCA</text><line x1="520" y1="485" x2="545" y2="485" stroke="#e07b18" stroke-width="3"/><text x="552" y="490" font-family="Segoe UI,Arial,sans-serif" font-size="12" fill="#444" text-anchor="start" font-weight="normal">eTRCA</text><line x1="630" y1="485" x2="655" y2="485" stroke="#23965b" stroke-width="3"/><text x="662" y="490" font-family="Segoe UI,Arial,sans-serif" font-size="12" fill="#444" text-anchor="start" font-weight="normal">TDCA</text><text x="540.0" y="520" font-family="Segoe UI,Arial,sans-serif" font-size="11" fill="#666" text-anchor="middle" font-weight="normal">ITR is a rate estimate; decision-only uses guard + evidence, cycle estimate includes a fixed 9 s cycle.</text></svg>
