<svg xmlns="http://www.w3.org/2000/svg" width="960" height="580" viewBox="0 0 960 580">
<rect width="100%" height="100%" fill="white"/>
<text x="90" y="35" font-size="20" font-family="Arial" font-weight="bold">Context strength to fused top-second margin at 0.90 s</text>
<line x1="90" y1="475.0" x2="700" y2="475.0" stroke="#dddddd"/>
<text x="78" y="479.0" text-anchor="end" font-size="12" font-family="Arial">0.061</text>
<line x1="90" y1="394.0" x2="700" y2="394.0" stroke="#dddddd"/>
<text x="78" y="398.0" text-anchor="end" font-size="12" font-family="Arial">0.263</text>
<line x1="90" y1="313.0" x2="700" y2="313.0" stroke="#dddddd"/>
<text x="78" y="317.0" text-anchor="end" font-size="12" font-family="Arial">0.465</text>
<line x1="90" y1="232.0" x2="700" y2="232.0" stroke="#dddddd"/>
<text x="78" y="236.0" text-anchor="end" font-size="12" font-family="Arial">0.666</text>
<line x1="90" y1="151.0" x2="700" y2="151.0" stroke="#dddddd"/>
<text x="78" y="155.0" text-anchor="end" font-size="12" font-family="Arial">0.868</text>
<line x1="90" y1="70.0" x2="700" y2="70.0" stroke="#dddddd"/>
<text x="78" y="74.0" text-anchor="end" font-size="12" font-family="Arial">1.070</text>
<line x1="90" y1="70" x2="90" y2="475" stroke="#333"/>
<line x1="90" y1="475" x2="700" y2="475" stroke="#333"/>
<line x1="90.0" y1="475" x2="90.0" y2="480" stroke="#333"/>
<text x="90.0" y="498" text-anchor="middle" font-size="11" font-family="Arial">0.333</text>
<line x1="242.5" y1="475" x2="242.5" y2="480" stroke="#333"/>
<text x="242.5" y="498" text-anchor="middle" font-size="11" font-family="Arial">0.500</text>
<line x1="334.0" y1="475" x2="334.0" y2="480" stroke="#333"/>
<text x="334.0" y="498" text-anchor="middle" font-size="11" font-family="Arial">0.600</text>
<line x1="425.5" y1="475" x2="425.5" y2="480" stroke="#333"/>
<text x="425.5" y="498" text-anchor="middle" font-size="11" font-family="Arial">0.700</text>
<line x1="517.0" y1="475" x2="517.0" y2="480" stroke="#333"/>
<text x="517.0" y="498" text-anchor="middle" font-size="11" font-family="Arial">0.800</text>
<line x1="608.5" y1="475" x2="608.5" y2="480" stroke="#333"/>
<text x="608.5" y="498" text-anchor="middle" font-size="11" font-family="Arial">0.900</text>
<line x1="654.2" y1="475" x2="654.2" y2="480" stroke="#333"/>
<text x="654.2" y="498" text-anchor="middle" font-size="11" font-family="Arial">0.950</text>
<line x1="681.7" y1="475" x2="681.7" y2="480" stroke="#333"/>
<text x="681.7" y="498" text-anchor="middle" font-size="11" font-family="Arial">0.980</text>
<line x1="690.9" y1="475" x2="690.9" y2="480" stroke="#333"/>
<text x="690.9" y="498" text-anchor="middle" font-size="11" font-family="Arial">0.990</text>
<line x1="700.0" y1="475" x2="700.0" y2="480" stroke="#333"/>
<text x="700.0" y="498" text-anchor="middle" font-size="11" font-family="Arial">1.000</text>
<text x="395.0" y="552" text-anchor="middle" font-size="14" font-family="Arial">Context prior strength</text>
<text x="22" y="272.5" transform="rotate(-90 22 272.5)" text-anchor="middle" font-size="14" font-family="Arial">Mean fused margin</text>
<polyline points="90.0,447.1 242.5,341.8 334.0,285.3 425.5,233.2 517.0,184.9 608.5,139.9 654.2,118.6 681.7,106.1 690.9,102.0 700.0,97.9" fill="none" stroke="#1565c0" stroke-width="2.5"/>
<circle cx="90.0" cy="447.1" r="3.8" fill="#1565c0"/>
<circle cx="242.5" cy="341.8" r="3.8" fill="#1565c0"/>
<circle cx="334.0" cy="285.3" r="3.8" fill="#1565c0"/>
<circle cx="425.5" cy="233.2" r="3.8" fill="#1565c0"/>
<circle cx="517.0" cy="184.9" r="3.8" fill="#1565c0"/>
<circle cx="608.5" cy="139.9" r="3.8" fill="#1565c0"/>
<circle cx="654.2" cy="118.6" r="3.8" fill="#1565c0"/>
<circle cx="681.7" cy="106.1" r="3.8" fill="#1565c0"/>
<circle cx="690.9" cy="102.0" r="3.8" fill="#1565c0"/>
<circle cx="700.0" cy="97.9" r="3.8" fill="#1565c0"/>
<line x1="724" y1="86" x2="746" y2="86" stroke="#1565c0" stroke-width="3"/>
<text x="754" y="90" font-size="12" font-family="Arial">All trials</text>
</svg>