<svg xmlns="http://www.w3.org/2000/svg" width="900" height="560" viewBox="0 0 900 560"><rect width="100%" height="100%" fill="white"/><text x="450.0" y="28" text-anchor="middle" font-family="Arial" font-size="18">Known Context-ON early-stop trajectories</text><line x1="85" y1="60" x2="85" y2="485" stroke="black"/><line x1="85" y1="485" x2="865" y2="485" stroke="black"/><polyline fill="none" stroke="#d62728" stroke-width="2" points="120.45,386.07 191.36,290.54 262.27,382.10 333.18,412.30 404.09,382.39 475.00,310.57 545.91,198.85 616.82,217.23 687.73,184.38 758.64,236.00 829.55,187.36"/><circle cx="120.45" cy="386.07" r="4" fill="#d62728"/><circle cx="191.36" cy="290.54" r="4" fill="#d62728"/><circle cx="262.27" cy="382.10" r="4" fill="#d62728"/><circle cx="333.18" cy="412.30" r="4" fill="#d62728"/><circle cx="404.09" cy="382.39" r="4" fill="#d62728"/><circle cx="475.00" cy="310.57" r="4" fill="#d62728"/><circle cx="545.91" cy="198.85" r="4" fill="#d62728"/><circle cx="616.82" cy="217.23" r="4" fill="#d62728"/><circle cx="687.73" cy="184.38" r="4" fill="#d62728"/><circle cx="758.64" cy="236.00" r="4" fill="#d62728"/><circle cx="829.55" cy="187.36" r="4" fill="#d62728"/><polyline fill="none" stroke="#d62728" stroke-width="2" points="120.45,174.95 191.36,406.74 262.27,176.97 333.18,189.43 404.09,179.49 475.00,407.77 545.91,360.36 616.82,352.16 687.73,349.10 758.64,372.97 829.55,355.61"/><circle cx="120.45" cy="174.95" r="4" fill="#d62728"/><circle cx="191.36" cy="406.74" r="4" fill="#d62728"/><circle cx="262.27" cy="176.97" r="4" fill="#d62728"/><circle cx="333.18" cy="189.43" r="4" fill="#d62728"/><circle cx="404.09" cy="179.49" r="4" fill="#d62728"/><circle cx="475.00" cy="407.77" r="4" fill="#d62728"/><circle cx="545.91" cy="360.36" r="4" fill="#d62728"/><circle cx="616.82" cy="352.16" r="4" fill="#d62728"/><circle cx="687.73" cy="349.10" r="4" fill="#d62728"/><circle cx="758.64" cy="372.97" r="4" fill="#d62728"/><circle cx="829.55" cy="355.61" r="4" fill="#d62728"/><polyline fill="none" stroke="#9467bd" stroke-width="2" points="120.45,480.42 191.36,405.34 262.27,413.25 333.18,352.16 404.09,206.28 475.00,236.45 545.91,167.07 616.82,242.91 687.73,221.59 758.64,245.95 829.55,279.60"/><circle cx="120.45" cy="480.42" r="4" fill="#9467bd"/><circle cx="191.36" cy="405.34" r="4" fill="#9467bd"/><circle cx="262.27" cy="413.25" r="4" fill="#9467bd"/><circle cx="333.18" cy="352.16" r="4" fill="#9467bd"/><circle cx="404.09" cy="206.28" r="4" fill="#9467bd"/><circle cx="475.00" cy="236.45" r="4" fill="#9467bd"/><circle cx="545.91" cy="167.07" r="4" fill="#9467bd"/><circle cx="616.82" cy="242.91" r="4" fill="#9467bd"/><circle cx="687.73" cy="221.59" r="4" fill="#9467bd"/><circle cx="758.64" cy="245.95" r="4" fill="#9467bd"/><circle cx="829.55" cy="279.60" r="4" fill="#9467bd"/><polyline fill="none" stroke="#9467bd" stroke-width="2" points="120.45,212.84 191.36,178.15 262.27,177.06 333.18,429.60 404.09,371.61 475.00,382.49 545.91,358.54 616.82,392.15 687.73,373.53 758.64,382.59 829.55,400.78"/><circle cx="120.45" cy="212.84" r="4" fill="#9467bd"/><circle cx="191.36" cy="178.15" r="4" fill="#9467bd"/><circle cx="262.27" cy="177.06" r="4" fill="#9467bd"/><circle cx="333.18" cy="429.60" r="4" fill="#9467bd"/><circle cx="404.09" cy="371.61" r="4" fill="#9467bd"/><circle cx="475.00" cy="382.49" r="4" fill="#9467bd"/><circle cx="545.91" cy="358.54" r="4" fill="#9467bd"/><circle cx="616.82" cy="392.15" r="4" fill="#9467bd"/><circle cx="687.73" cy="373.53" r="4" fill="#9467bd"/><circle cx="758.64" cy="382.59" r="4" fill="#9467bd"/><circle cx="829.55" cy="400.78" r="4" fill="#9467bd"/><polyline fill="none" stroke="#ff7f0e" stroke-width="2" points="120.45,347.62 191.36,231.92 262.27,146.65 333.18,85.56 404.09,183.05 475.00,305.46 545.91,389.15 616.82,398.18 687.73,391.67 758.64,413.52 829.55,451.11"/><circle cx="120.45" cy="347.62" r="4" fill="#ff7f0e"/><circle cx="191.36" cy="231.92" r="4" fill="#ff7f0e"/><circle cx="262.27" cy="146.65" r="4" fill="#ff7f0e"/><circle cx="333.18" cy="85.56" r="4" fill="#ff7f0e"/><circle cx="404.09" cy="183.05" r="4" fill="#ff7f0e"/><circle cx="475.00" cy="305.46" r="4" fill="#ff7f0e"/><circle cx="545.91" cy="389.15" r="4" fill="#ff7f0e"/><circle cx="616.82" cy="398.18" r="4" fill="#ff7f0e"/><circle cx="687.73" cy="391.67" r="4" fill="#ff7f0e"/><circle cx="758.64" cy="413.52" r="4" fill="#ff7f0e"/><circle cx="829.55" cy="451.11" r="4" fill="#ff7f0e"/><polyline fill="none" stroke="#ff7f0e" stroke-width="2" points="120.45,430.10 191.36,381.47 262.27,351.86 333.18,320.34 404.09,367.76 475.00,407.06 545.91,171.79 616.82,180.57 687.73,181.96 758.64,189.13 829.55,203.08"/><circle cx="120.45" cy="430.10" r="4" fill="#ff7f0e"/><circle cx="191.36" cy="381.47" r="4" fill="#ff7f0e"/><circle cx="262.27" cy="351.86" r="4" fill="#ff7f0e"/><circle cx="333.18" cy="320.34" r="4" fill="#ff7f0e"/><circle cx="404.09" cy="367.76" r="4" fill="#ff7f0e"/><circle cx="475.00" cy="407.06" r="4" fill="#ff7f0e"/><circle cx="545.91" cy="171.79" r="4" fill="#ff7f0e"/><circle cx="616.82" cy="180.57" r="4" fill="#ff7f0e"/><circle cx="687.73" cy="181.96" r="4" fill="#ff7f0e"/><circle cx="758.64" cy="189.13" r="4" fill="#ff7f0e"/><circle cx="829.55" cy="203.08" r="4" fill="#ff7f0e"/><line x1="100" y1="532" x2="120" y2="532" stroke="#d62728" stroke-width="3"/><text x="127" y="537" font-family="Arial" font-size="12">m6_1b-trial-015 raw margin</text><line x1="290" y1="532" x2="310" y2="532" stroke="#d62728" stroke-width="3"/><text x="317" y="537" font-family="Arial" font-size="12">m6_1b-trial-015 ON fused margin</text><line x1="480" y1="532" x2="500" y2="532" stroke="#9467bd" stroke-width="3"/><text x="507" y="537" font-family="Arial" font-size="12">m6_4-trial-001 raw margin</text><line x1="670" y1="532" x2="690" y2="532" stroke="#9467bd" stroke-width="3"/><text x="697" y="537" font-family="Arial" font-size="12">m6_4-trial-001 ON fused margin</text><line x1="860" y1="532" x2="880" y2="532" stroke="#ff7f0e" stroke-width="3"/><text x="887" y="537" font-family="Arial" font-size="12">m6_4-trial-002 raw margin</text><line x1="1050" y1="532" x2="1070" y2="532" stroke="#ff7f0e" stroke-width="3"/><text x="1077" y="537" font-family="Arial" font-size="12">m6_4-trial-002 ON fused margin</text><text x="450.0" y="558" text-anchor="middle" font-family="Arial" font-size="13">Time since stimulus onset (s)</text><text transform="translate(16 280.0) rotate(-90)" text-anchor="middle" font-family="Arial" font-size="13">Margin</text></svg>